<svg width="16" height="16" viewBox="0 0 16 16" fill="none" xmlns="http://www.w3.org/2000/svg">
<path d="M13.9801 0.666626H12.0201C11.4401 0.666626 11.0134 0.906626 10.8201 1.33329C10.7134 1.52663 10.6667 1.75329 10.6667 2.01996V3.97996C10.6667 4.82663 11.1734 5.33329 12.0201 5.33329H13.9801C14.2467 5.33329 14.4734 5.28663 14.6667 5.17996C15.0934 4.98663 15.3334 4.55996 15.3334 3.97996V2.01996C15.3334 1.17329 14.8267 0.666626 13.9801 0.666626ZM14.6067 3.28663C14.5401 3.35329 14.4401 3.39996 14.3334 3.40663H13.3934V3.74663L13.4001 4.33329C13.3934 4.44663 13.3534 4.53996 13.2734 4.61996C13.2067 4.68663 13.1067 4.73329 13.0001 4.73329C12.7801 4.73329 12.6001 4.55329 12.6001 4.33329V3.39996L11.6667 3.40663C11.4467 3.40663 11.2667 3.21996 11.2667 2.99996C11.2667 2.77996 11.4467 2.59996 11.6667 2.59996L12.2534 2.60663H12.6001V1.67329C12.6001 1.45329 12.7801 1.26663 13.0001 1.26663C13.2201 1.26663 13.4001 1.45329 13.4001 1.67329L13.3934 2.14663V2.59996H14.3334C14.5534 2.59996 14.7334 2.77996 14.7334 2.99996C14.7267 3.11329 14.6801 3.20663 14.6067 3.28663Z" fill="#292D32"/>
<path d="M6 6.92004C6.87629 6.92004 7.58666 6.20966 7.58666 5.33337C7.58666 4.45708 6.87629 3.7467 6 3.7467C5.1237 3.7467 4.41333 4.45708 4.41333 5.33337C4.41333 6.20966 5.1237 6.92004 6 6.92004Z" fill="#292D32"/>
<path d="M13.9799 5.33337H13.6666V8.40671L13.5799 8.33337C13.0599 7.88671 12.2199 7.88671 11.6999 8.33337L8.92659 10.7134C8.40659 11.16 7.56659 11.16 7.04659 10.7134L6.81992 10.5267C6.34659 10.1134 5.59325 10.0734 5.05992 10.4334L2.56659 12.1067C2.41992 11.7334 2.33325 11.3 2.33325 10.7934V5.20671C2.33325 3.32671 3.32659 2.33337 5.20659 2.33337H10.6666V2.02004C10.6666 1.75337 10.7133 1.52671 10.8199 1.33337H5.20659C2.77992 1.33337 1.33325 2.78004 1.33325 5.20671V10.7934C1.33325 11.52 1.45992 12.1534 1.70659 12.6867C2.27992 13.9534 3.50659 14.6667 5.20659 14.6667H10.7933C13.2199 14.6667 14.6666 13.22 14.6666 10.7934V5.18004C14.4733 5.28671 14.2466 5.33337 13.9799 5.33337Z" fill="#292D32"/>
</svg>
