<svg width="22" height="22" viewBox="0 0 22 22" fill="none" xmlns="http://www.w3.org/2000/svg">
<path d="M15.4189 1.83325H6.58228C4.62978 1.83325 3.04395 3.42825 3.04395 5.37159V18.2874C3.04395 19.9374 4.22645 20.6341 5.67478 19.8366L10.1481 17.3524C10.6248 17.0866 11.3948 17.0866 11.8623 17.3524L16.3356 19.8366C17.7839 20.6433 18.9664 19.9466 18.9664 18.2874V5.37159C18.9573 3.42825 17.3714 1.83325 15.4189 1.83325ZM13.2923 10.4499H8.70895C8.33311 10.4499 8.02145 10.1383 8.02145 9.76242C8.02145 9.38659 8.33311 9.07492 8.70895 9.07492H13.2923C13.6681 9.07492 13.9798 9.38659 13.9798 9.76242C13.9798 10.1383 13.6681 10.4499 13.2923 10.4499Z" fill="#D94A4A"/>
</svg>
