<svg width="17" height="21" viewBox="0 0 17 21" fill="none" xmlns="http://www.w3.org/2000/svg">
<path opacity="0.4" d="M8.44976 17.0395L2.12709 20.201C1.64961 20.4605 1.05401 20.2873 0.786955 19.8113C0.708961 19.6616 0.667717 19.4953 0.666687 19.3262V12.2496C0.666687 12.9512 1.06185 13.3843 2.10132 13.8694L8.44976 17.0395Z" fill="#1F1F1F"/>
<path d="M11.4479 0.833374C14.0852 0.833374 16.2242 1.87277 16.25 4.53191V19.326C16.249 19.4923 16.2077 19.6559 16.1298 19.8024C16.0045 20.0415 15.7883 20.219 15.5307 20.2941C15.2731 20.3693 14.9963 20.3356 14.7638 20.2009L8.44976 17.0394L2.10132 13.8692C1.06185 13.3841 0.666687 12.9511 0.666687 12.2495V4.53191C0.666687 1.87277 2.80574 0.833374 5.43446 0.833374H11.4479ZM12.1094 6.72331H4.78158C4.35932 6.72331 4.01702 7.06845 4.01702 7.4942C4.01702 7.91995 4.35932 8.26509 4.78158 8.26509H12.1094C12.5316 8.26509 12.8739 7.91995 12.8739 7.4942C12.8739 7.06845 12.5316 6.72331 12.1094 6.72331Z" fill="#1F1F1F"/>
</svg>
