<svg width="21" height="21" viewBox="0 0 21 21" fill="none" xmlns="http://www.w3.org/2000/svg">
<path fill-rule="evenodd" clip-rule="evenodd" d="M10.4598 0.833496C13.0329 0.833496 15.4511 1.83388 17.2674 3.65105C21.0219 7.4054 21.0219 13.5134 17.2674 17.2677C15.4269 19.1091 12.9487 20.0835 10.4383 20.0835C9.06979 20.0835 7.69232 19.7942 6.40352 19.1977C6.02377 19.0455 5.66821 18.9022 5.41296 18.9022C5.1192 18.904 4.72423 19.0401 4.34269 19.1718C3.55992 19.4405 2.58548 19.7754 1.8645 19.0571C1.14622 18.338 1.4776 17.3662 1.74449 16.5844C1.87615 16.1993 2.01139 15.8016 2.01139 15.5007C2.01139 15.2535 1.89227 14.9383 1.70956 14.4842C0.0320615 10.8615 0.80767 6.49547 3.65306 3.65195C5.46938 1.83478 7.88667 0.833496 10.4598 0.833496ZM10.4607 2.17689C8.24581 2.17689 6.16528 3.03846 4.60242 4.60218C2.15379 7.04895 1.48745 10.806 2.94283 13.9522C3.15241 14.4708 3.35482 14.9759 3.35482 15.5007C3.35482 16.0246 3.1748 16.5521 3.01628 17.0179C2.88551 17.4012 2.68758 17.9797 2.81476 18.1069C2.93925 18.2359 3.52141 18.0326 3.90563 17.9009C4.36687 17.7433 4.88992 17.5624 5.40848 17.5588C5.92794 17.5588 6.41785 17.7558 6.93641 17.9645C10.1132 19.4333 13.8703 18.7652 16.3181 16.3184C19.5477 13.0871 19.5477 7.83081 16.3181 4.60128C14.7543 3.03756 12.6747 2.17689 10.4607 2.17689ZM13.9956 9.9352C14.49 9.9352 14.8912 10.3355 14.8912 10.8308C14.8912 11.3261 14.49 11.7264 13.9956 11.7264C13.5012 11.7264 13.0964 11.3261 13.0964 10.8308C13.0964 10.3355 13.4932 9.9352 13.9876 9.9352H13.9956ZM10.4052 9.9352C10.8996 9.9352 11.3009 10.3355 11.3009 10.8308C11.3009 11.3261 10.8996 11.7264 10.4052 11.7264C9.91086 11.7264 9.50604 11.3261 9.50604 10.8308C9.50604 10.3355 9.90191 9.9352 10.3972 9.9352H10.4052ZM6.81452 9.9352C7.3089 9.9352 7.71014 10.3355 7.71014 10.8308C7.71014 11.3261 7.3089 11.7264 6.81452 11.7264C6.32014 11.7264 5.91532 11.3261 5.91532 10.8308C5.91532 10.3355 6.31208 9.9352 6.80646 9.9352H6.81452Z" fill="#414141"/>
</svg>
