<svg width="20" height="20" viewBox="0 0 20 20" fill="none" xmlns="http://www.w3.org/2000/svg">
<path d="M18.3334 3.89162V13.95C18.3334 14.75 17.6834 15.4999 16.8834 15.5999L16.6084 15.6333C14.7917 15.875 11.9917 16.7999 10.3917 17.6833C10.1751 17.8083 9.81676 17.8083 9.59176 17.6833L9.55839 17.6666C7.95839 16.7916 5.16677 15.875 3.35844 15.6333L3.11674 15.5999C2.31674 15.4999 1.66675 14.75 1.66675 13.95V3.88328C1.66675 2.89161 2.47506 2.14162 3.46673 2.22495C5.21673 2.36662 7.86672 3.24998 9.35006 4.17498L9.55839 4.29995C9.80006 4.44995 10.2001 4.44995 10.4418 4.29995L10.5834 4.20829C11.1084 3.88329 11.7751 3.55829 12.5001 3.26662V6.66663L14.1667 5.55829L15.8334 6.66663V2.31666C16.0584 2.27499 16.2751 2.24996 16.4751 2.2333H16.5251C17.5168 2.14996 18.3334 2.89162 18.3334 3.89162Z" stroke="#E5E5E5" stroke-width="1.5" stroke-linecap="round" stroke-linejoin="round"/>
<path d="M10 4.57495V17.075" stroke="#E5E5E5" stroke-width="1.5" stroke-linecap="round" stroke-linejoin="round"/>
<path d="M15.8333 2.31665V6.66663L14.1667 5.55828L12.5 6.66663V3.26661C13.5917 2.83328 14.8083 2.48332 15.8333 2.31665Z" stroke="#E5E5E5" stroke-width="1.5" stroke-linecap="round" stroke-linejoin="round"/>
</svg>
