<svg width="24" height="22" viewBox="0 0 24 22" fill="none" xmlns="http://www.w3.org/2000/svg">
<path d="M11 1.83154H9C4 1.83154 2 3.66327 2 8.2426V13.7378C2 18.3171 4 20.1489 9 20.1489H15C20 20.1489 22 18.3171 22 13.7378V11.9061" stroke="#D94A4A" stroke-width="1.5" stroke-linecap="round" stroke-linejoin="round"/>
<path d="M16.0399 2.76584L8.15988 9.98286C7.85988 10.2576 7.55988 10.798 7.49988 11.1918L7.06988 13.9486C6.90988 14.9468 7.67988 15.6429 8.76988 15.5055L11.7799 15.1117C12.1999 15.0568 12.7899 14.782 13.0999 14.5072L20.9799 7.29021C22.3399 6.04464 22.9799 4.59757 20.9799 2.76584C18.9799 0.934107 17.3999 1.52026 16.0399 2.76584Z" stroke="#D94A4A" stroke-width="1.5" stroke-miterlimit="10" stroke-linecap="round" stroke-linejoin="round"/>
<path d="M14.9102 3.80078C15.5802 5.9897 17.4502 7.70237 19.8502 8.32516" stroke="#D94A4A" stroke-width="1.5" stroke-miterlimit="10" stroke-linecap="round" stroke-linejoin="round"/>
</svg>
