<svg width="20" height="20" viewBox="0 0 20 20" fill="none" xmlns="http://www.w3.org/2000/svg">
<path d="M7.63338 9.05829C7.55005 9.04996 7.45005 9.04996 7.35838 9.05829C5.37505 8.99163 3.80005 7.36663 3.80005 5.36663C3.80005 3.32496 5.45005 1.66663 7.50005 1.66663C9.54172 1.66663 11.2 3.32496 11.2 5.36663C11.1917 7.36663 9.61671 8.99163 7.63338 9.05829Z" stroke="#E5E5E5" stroke-width="1.5" stroke-linecap="round" stroke-linejoin="round"/>
<path d="M13.675 3.33337C15.2916 3.33337 16.5917 4.64171 16.5917 6.25004C16.5917 7.82504 15.3417 9.10837 13.7833 9.16671C13.7167 9.15837 13.6417 9.15837 13.5667 9.16671" stroke="#E5E5E5" stroke-width="1.5" stroke-linecap="round" stroke-linejoin="round"/>
<path d="M3.4666 12.1334C1.44993 13.4834 1.44993 15.6834 3.4666 17.025C5.75827 18.5584 9.5166 18.5584 11.8083 17.025C13.8249 15.675 13.8249 13.475 11.8083 12.1334C9.52494 10.6084 5.7666 10.6084 3.4666 12.1334Z" stroke="#E5E5E5" stroke-width="1.5" stroke-linecap="round" stroke-linejoin="round"/>
<path d="M15.2834 16.6666C15.8834 16.5416 16.4501 16.3 16.9168 15.9416C18.2168 14.9666 18.2168 13.3583 16.9168 12.3833C16.4584 12.0333 15.9001 11.8 15.3084 11.6666" stroke="#E5E5E5" stroke-width="1.5" stroke-linecap="round" stroke-linejoin="round"/>
</svg>
