<svg width="23" height="24" viewBox="0 0 23 24" fill="none" xmlns="http://www.w3.org/2000/svg">
<path d="M8.18237 22.528V18.8587C8.18237 17.9221 8.92041 17.1628 9.83082 17.1628H13.1588C13.596 17.1628 14.0153 17.3414 14.3244 17.6595C14.6336 17.9776 14.8073 18.4089 14.8073 18.8587V22.528C14.8045 22.9174 14.9529 23.2918 15.2196 23.5682C15.4863 23.8446 15.8491 24 16.2276 24H18.4981C19.5585 24.0028 20.5765 23.5714 21.3272 22.801C22.078 22.0305 22.5 20.9844 22.5 19.8934V9.44023C22.5 8.55895 22.1203 7.72301 21.4632 7.1576L13.7394 0.811042C12.3958 -0.301726 10.4708 -0.265797 9.16729 0.896374L1.6197 7.1576C0.931594 7.70634 0.520324 8.54476 0.5 9.44023V19.8827C0.5 22.1566 2.2917 24 4.50188 24H6.72055C7.50668 24 8.14558 23.3474 8.15127 22.5387L8.18237 22.528Z" fill="#D94A4A"/>
</svg>
