<svg width="18" height="19" viewBox="0 0 18 19" fill="none" xmlns="http://www.w3.org/2000/svg">
<path d="M11.0833 7.41667H15.4503C15.7628 7.41668 16.0701 7.49655 16.343 7.6487C16.6159 7.80084 16.8454 8.02022 17.0097 8.286C17.174 8.55178 17.2676 8.85514 17.2817 9.16728C17.2958 9.47943 17.2299 9.78999 17.0903 10.0695L13.8819 16.4862C13.7296 16.7909 13.4954 17.0472 13.2056 17.2263C12.9158 17.4054 12.5818 17.5002 12.2411 17.5H8.55883C8.40942 17.5 8.26 17.4817 8.11425 17.445L4.66667 16.5833M11.0833 7.41667V2.83333C11.0833 2.3471 10.8902 1.88079 10.5464 1.53697C10.2025 1.19315 9.73623 1 9.25 1H9.16292C8.70458 1 8.33333 1.37125 8.33333 1.82958C8.33333 2.48408 8.13992 3.12392 7.776 3.66842L4.66667 8.33333V16.5833M11.0833 7.41667H9.25M4.66667 16.5833H2.83333C2.3471 16.5833 1.88079 16.3902 1.53697 16.0464C1.19315 15.7025 1 15.2362 1 14.75V9.25C1 8.76377 1.19315 8.29745 1.53697 7.95364C1.88079 7.60982 2.3471 7.41667 2.83333 7.41667H5.125" stroke="#1F1F1F" stroke-width="1.2" stroke-linecap="round" stroke-linejoin="round"/>
</svg>
