<svg width="17" height="17" viewBox="0 0 17 17" fill="none" xmlns="http://www.w3.org/2000/svg">
<path d="M0 8.76562C-3.07114e-09 8.56249 0.0405946 8.36134 0.119466 8.17366C0.198337 7.98599 0.31394 7.81546 0.459675 7.67182C0.60541 7.52818 0.778423 7.41424 0.968835 7.3365C1.15925 7.25876 1.36333 7.21875 1.56943 7.21875C1.77553 7.21875 1.97961 7.25876 2.17002 7.3365C2.36044 7.41424 2.53345 7.52818 2.67918 7.67182C2.82492 7.81546 2.94052 7.98599 3.01939 8.17366C3.09827 8.36134 3.13886 8.56249 3.13886 8.76562V14.9531C3.13886 15.3634 2.97351 15.7568 2.67918 16.0469C2.38486 16.337 1.98567 16.5 1.56943 16.5C1.15319 16.5 0.754001 16.337 0.459675 16.0469C0.16535 15.7568 6.20244e-09 15.3634 0 14.9531V8.76562ZM4.18515 8.59341V14.1931C4.18497 14.5764 4.29314 14.9521 4.49755 15.2782C4.70195 15.6042 4.99448 15.8677 5.34234 16.039L5.39465 16.0648C5.97522 16.3508 6.61532 16.4998 7.26437 16.5H12.9311C13.415 16.5002 13.884 16.3351 14.2583 16.0327C14.6326 15.7303 14.889 15.3095 14.9839 14.8418L16.2394 8.65425C16.3001 8.35506 16.2927 8.04632 16.2177 7.7503C16.1427 7.45428 16.002 7.17834 15.8057 6.94239C15.6094 6.70643 15.3625 6.51633 15.0827 6.3858C14.8029 6.25526 14.4972 6.18753 14.1876 6.1875H10.4629V2.0625C10.4629 1.51549 10.2424 0.990886 9.84997 0.604092C9.45753 0.217298 8.92528 0 8.37029 0C8.0928 0 7.82667 0.108649 7.63046 0.302046C7.43424 0.495443 7.32401 0.757746 7.32401 1.03125V1.71909C7.32401 2.61162 7.0303 3.48007 6.48698 4.19409L5.02218 6.11841C4.47885 6.83243 4.18515 7.70088 4.18515 8.59341Z" fill="#1C60FF"/>
</svg>
