<svg width="18" height="18" viewBox="0 0 18 18" fill="none" xmlns="http://www.w3.org/2000/svg">
<path d="M10.5233 7.47672C9.89819 6.85182 9.05049 6.50077 8.16661 6.50077C7.28273 6.50077 6.43504 6.85182 5.80994 7.47672L2.47661 10.8101C2.15824 11.1175 1.9043 11.4854 1.72961 11.892C1.55491 12.2987 1.46296 12.7361 1.45911 13.1787C1.45526 13.6213 1.5396 14.0602 1.70721 14.4699C1.87481 14.8796 2.12232 15.2517 2.43529 15.5647C2.74827 15.8777 3.12044 16.1252 3.5301 16.2928C3.93975 16.4604 4.37868 16.5447 4.82128 16.5409C5.26388 16.537 5.70128 16.4451 6.10796 16.2704C6.51464 16.0957 6.88246 15.8418 7.18994 15.5234L8.10828 14.6059M7.47661 10.5234C8.1017 11.1483 8.9494 11.4993 9.83328 11.4993C10.7172 11.4993 11.5649 11.1483 12.1899 10.5234L15.5233 7.19005C16.1305 6.56138 16.4665 5.71937 16.4589 4.84538C16.4513 3.97139 16.1007 3.13535 15.4827 2.51733C14.8646 1.8993 14.0286 1.54874 13.1546 1.54114C12.2806 1.53355 11.4386 1.86953 10.8099 2.47672L9.89328 3.39339" stroke="#D94A4A" stroke-width="1.5" stroke-linecap="round" stroke-linejoin="round"/>
</svg>
