<svg width="24" height="24" viewBox="0 0 24 24" fill="none" xmlns="http://www.w3.org/2000/svg">
<g id="Activity">
<g id="Iconly/Broken/Activity">
<g id="Activity_2">
<path id="Vector" d="M20.5594 8.79017C20.961 8.795 21.2841 9.12128 21.2841 9.52209V15.9947C21.2841 19.6984 18.9686 22 15.2567 22H12.3049C11.8983 22 11.5673 21.6737 11.5625 21.2681C11.5673 20.861 11.8969 20.5321 12.3049 20.5273H15.2567C18.182 20.5273 19.7993 18.9224 19.8258 15.9947V9.52209C19.8258 9.11786 20.1543 8.79017 20.5594 8.79017ZM14.5232 2.77609C14.9297 2.78092 15.2567 3.11114 15.2567 3.51682C15.2567 3.71248 15.1782 3.89999 15.0387 4.03751C14.8993 4.17503 14.7104 4.2511 14.5143 4.24874H8.01854C5.09323 4.24874 3.47591 5.86249 3.47591 8.79017V15.9947C3.47591 18.9224 5.09323 20.5273 8.01854 20.5273C8.42655 20.5321 8.75614 20.861 8.76092 21.2681C8.75608 21.6737 8.42512 22 8.01854 22C4.30667 22 2 19.6984 2 15.9947V8.79017C2 5.07766 4.30667 2.77609 8.01854 2.77609H14.5232ZM15.6406 9.47416C15.8987 9.29834 16.2464 9.30339 16.501 9.49884C16.7875 9.71871 16.8708 10.114 16.6973 10.4304L13.8692 14.0723C13.7454 14.2248 13.5688 14.3255 13.3742 14.3545C13.1806 14.3742 12.987 14.3172 12.8351 14.1958L10.1219 12.0706L7.6827 15.2364C7.56639 15.3943 7.39148 15.499 7.19713 15.5272C7.00278 15.5554 6.80522 15.5046 6.64868 15.3863C6.32922 15.1364 6.27016 14.6768 6.51612 14.3545L9.40608 10.5979C9.52663 10.4422 9.70435 10.3407 9.9 10.3159C10.0957 10.2911 10.2932 10.345 10.4489 10.4657L13.1621 12.5909L15.5483 9.54855L15.6406 9.47416ZM18.4012 2.19996C19.3718 1.7959 20.4908 2.01553 21.2358 2.7563C21.9807 3.49708 22.2046 4.61288 21.803 5.58275C21.4013 6.55261 20.4533 7.18524 19.4016 7.18524C17.9701 7.18524 16.8082 6.02987 16.8033 4.60148L16.8092 4.41743C16.8751 3.44243 17.4876 2.58026 18.4012 2.19996ZM19.4016 3.48155C18.7817 3.48155 18.2792 3.98296 18.2792 4.60148C18.2792 5.21999 18.7817 5.7214 19.4016 5.7214C20.0215 5.7214 20.524 5.21999 20.524 4.60148C20.524 3.98296 20.0215 3.48155 19.4016 3.48155Z" fill="white" fill-opacity="0.87"/>
</g>
</g>
</g>
</svg>
