<svg width="20" height="20" viewBox="0 0 20 20" fill="none" xmlns="http://www.w3.org/2000/svg">
<path d="M18.5594 6.79017C18.961 6.795 19.2841 7.12128 19.2841 7.52209V13.9947C19.2841 17.6984 16.9686 20 13.2567 20H10.3049C9.8983 20 9.56734 19.6737 9.5625 19.2681C9.56727 18.861 9.89686 18.5321 10.3049 18.5273H13.2567C16.182 18.5273 17.7993 16.9224 17.8258 13.9947V7.52209C17.8258 7.11786 18.1543 6.79017 18.5594 6.79017ZM12.5232 0.776086C12.9297 0.780916 13.2567 1.11114 13.2567 1.51682C13.2567 1.71248 13.1782 1.89999 13.0387 2.03751C12.8993 2.17503 12.7104 2.2511 12.5143 2.24874H6.01854C3.09323 2.24874 1.47591 3.86249 1.47591 6.79017V13.9947C1.47591 16.9224 3.09323 18.5273 6.01854 18.5273C6.42655 18.5321 6.75614 18.861 6.76092 19.2681C6.75608 19.6737 6.42512 20 6.01854 20C2.30667 20 0 17.6984 0 13.9947V6.79017C0 3.07766 2.30667 0.776086 6.01854 0.776086H12.5232ZM13.6406 7.47416C13.8987 7.29834 14.2464 7.30339 14.501 7.49884C14.7875 7.71871 14.8708 8.11403 14.6973 8.43038L11.8692 12.0723C11.7454 12.2248 11.5688 12.3255 11.3742 12.3545C11.1806 12.3742 10.987 12.3172 10.8351 12.1958L8.12194 10.0706L5.6827 13.2364C5.56639 13.3943 5.39148 13.499 5.19713 13.5272C5.00278 13.5554 4.80522 13.5046 4.64868 13.3863C4.32922 13.1364 4.27016 12.6768 4.51612 12.3545L7.40608 8.59793C7.52663 8.44218 7.70435 8.3407 7.9 8.31588C8.09565 8.29107 8.29316 8.34495 8.44894 8.46565L11.1621 10.5909L13.5483 7.54855L13.6406 7.47416ZM16.4012 0.199964C17.3718 -0.204099 18.4908 0.0155296 19.2358 0.756304C19.9807 1.49708 20.2046 2.61288 19.803 3.58275C19.4013 4.55261 18.4533 5.18524 17.4016 5.18524C15.9701 5.18524 14.8082 4.02987 14.8033 2.60148L14.8092 2.41743C14.8751 1.44243 15.4876 0.580258 16.4012 0.199964ZM17.4016 1.48155C16.7817 1.48155 16.2792 1.98296 16.2792 2.60148C16.2792 3.21999 16.7817 3.7214 17.4016 3.7214C18.0215 3.7214 18.524 3.21999 18.524 2.60148C18.524 1.98296 18.0215 1.48155 17.4016 1.48155Z" fill="black"/>
</svg>
