<svg width="20" height="20" viewBox="0 0 20 20" fill="none" xmlns="http://www.w3.org/2000/svg">
<path d="M12.4998 6.97499V6.17499C12.4998 3.69165 10.7748 2.74165 8.67484 4.05832L6.2415 5.58332C5.97484 5.74165 5.6665 5.83332 5.35817 5.83332H4.1665C2.49984 5.83332 1.6665 6.66665 1.6665 8.33332V11.6667C1.6665 13.3333 2.49984 14.1667 4.1665 14.1667H5.83317" stroke="#808080" stroke-width="1.5" stroke-linecap="round" stroke-linejoin="round"/>
<path d="M8.67529 15.9415C10.7753 17.2582 12.5003 16.2998 12.5003 13.8248V10.7915" stroke="#808080" stroke-width="1.5" stroke-linecap="round" stroke-linejoin="round"/>
<path d="M15.675 7.8501C16.425 9.64176 16.2 11.7334 15 13.3334" stroke="#808080" stroke-width="1.5" stroke-linecap="round" stroke-linejoin="round"/>
<path d="M17.6249 6.5C18.8499 9.40833 18.4832 12.8083 16.5249 15.4167" stroke="#808080" stroke-width="1.5" stroke-linecap="round" stroke-linejoin="round"/>
<path d="M18.3332 1.66675L1.6665 18.3334" stroke="#808080" stroke-width="1.5" stroke-linecap="round" stroke-linejoin="round"/>
</svg>
