<svg width="21" height="24" viewBox="0 0 21 24" fill="none" xmlns="http://www.w3.org/2000/svg">
<path d="M12.4301 21.0834C12.7565 20.7862 13.2574 20.7678 13.6059 21.0594C13.9893 21.3801 14.043 21.9545 13.726 22.3423C12.9444 23.3762 11.7352 23.9878 10.4485 24L10.1931 23.989C9.00685 23.9012 7.90894 23.3046 7.18154 22.3423L7.10424 22.2322C6.87699 21.8522 6.95308 21.351 7.30158 21.0594C7.68492 20.7387 8.2527 20.793 8.56975 21.1808C8.70899 21.3691 8.8742 21.5362 9.06032 21.6771C9.55782 22.0518 10.1826 22.2101 10.7959 22.1169C11.4093 22.0237 11.9605 21.6868 12.3273 21.1808H12.3377L12.4301 21.0834ZM10.459 0C14.0704 0 18.1202 2.59745 18.5795 6.76815V8.94325C18.7363 9.72829 19.0965 10.4571 19.6232 11.055C19.6544 11.0911 19.6824 11.13 19.7067 11.1711C20.1843 11.9045 20.4583 12.7542 20.5 13.6313L20.4687 13.8531C20.5047 15.0534 20.1119 16.2267 19.3623 17.1579C18.405 18.2115 17.0964 18.8697 15.6882 19.0057C12.2196 19.3941 8.7192 19.3941 5.25057 19.0057C3.86299 18.8604 2.57714 18.2025 1.63914 17.1579C0.877195 16.2401 0.472644 15.0724 0.501438 13.8742V13.7264C0.558823 12.8229 0.854359 11.9516 1.35733 11.2028L1.44083 11.0972C1.9639 10.4968 2.3236 9.76906 2.48459 8.98548V6.81038L2.54231 6.68888C2.71779 6.38039 3.05957 6.19997 3.41752 6.23947C3.82021 6.28391 4.14358 6.59568 4.20681 7.00044V9.17554C4.21087 9.21415 4.21087 9.25308 4.20681 9.29169C3.98948 10.381 3.49273 11.3933 2.76641 12.227C2.4867 12.6777 2.32838 13.1946 2.30715 13.7264V13.9586C2.28398 14.7065 2.52862 15.4377 2.99604 16.0176C3.64408 16.6947 4.51067 17.1143 5.43845 17.2002C8.79643 17.5697 12.1841 17.5697 15.5421 17.2002C16.4952 17.1117 17.383 16.672 18.0367 15.9648C18.4812 15.3986 18.714 14.6919 18.6943 13.9692V13.7264C18.6729 13.1928 18.5185 12.6734 18.2455 12.2165C17.4889 11.3922 16.9629 10.3791 16.7216 9.28113C16.7175 9.24252 16.7175 9.20359 16.7216 9.16498V6.97932C16.4189 3.79059 13.2771 1.8161 10.5425 1.8161C9.37983 1.8134 8.23632 2.11532 7.22329 2.69248L7.09922 2.7553C6.84415 2.86035 6.55232 2.84191 6.30978 2.69932C6.02681 2.53296 5.85578 2.22399 5.86342 1.89301C5.87107 1.56202 6.05619 1.26147 6.34653 1.10867C7.60181 0.391286 9.01725 0.00969926 10.459 0Z" fill="#E5E5E5" fill-opacity="0.5"/>
</svg>
