<svg width="18" height="15" viewBox="0 0 18 15" fill="none" xmlns="http://www.w3.org/2000/svg">
<path d="M16.372 10.0859V4.05549C16.372 3.25765 15.6427 2.66591 14.7571 2.7324H14.7125C13.1497 2.85208 10.7757 3.56349 9.45107 4.30815L9.32456 4.38128C9.10875 4.50096 8.75154 4.50096 8.53572 4.38128L8.34968 4.28155C7.02503 3.54354 4.65851 2.83878 3.09572 2.72575C2.21014 2.65926 1.48828 3.25765 1.48828 4.04885V10.0859C1.48828 10.7242 2.06875 11.3225 2.78316 11.4023L2.99898 11.4289C4.61386 11.6217 7.10689 12.3531 8.53572 13.0512L8.56549 13.0645C8.76642 13.1642 9.08642 13.1642 9.27991 13.0645C10.7087 12.3597 13.2092 11.6217 14.8315 11.4289L15.0771 11.4023C15.7915 11.3225 16.372 10.7242 16.372 10.0859Z" stroke="#D94A4A" stroke-width="1.11628" stroke-linecap="round" stroke-linejoin="round"/>
<path d="M8.93018 4.95361V12.3955" stroke="#D94A4A" stroke-width="1.11628" stroke-linecap="round" stroke-linejoin="round"/>
<path d="M5.76719 7.04102H4.09277" stroke="#D94A4A" stroke-width="1.11628" stroke-linecap="round" stroke-linejoin="round"/>
<path d="M6.32533 8.80811H4.09277" stroke="#D94A4A" stroke-width="1.11628" stroke-linecap="round" stroke-linejoin="round"/>
</svg>
