<svg width="32" height="32" viewBox="0 0 32 32" fill="none" xmlns="http://www.w3.org/2000/svg">
<g id="Frame 35694">
<g id="vuesax/linear/receipt-item">
<path id="Vector" d="M26 11V13.42C26 15 25 16 23.42 16H20V9.01C20 7.9 20.91 7 22.02 7C23.11 7.01 24.11 7.45 24.83 8.17C25.55 8.9 26 9.9 26 11Z" stroke="#E5E5E5" stroke-width="1.5" stroke-miterlimit="10" stroke-linecap="round" stroke-linejoin="round"/>
<path id="Vector_2" d="M6 12V26C6 26.83 6.94 27.3 7.6 26.8L9.31 25.52C9.71 25.22 10.27 25.26 10.63 25.62L12.29 27.29C12.68 27.68 13.32 27.68 13.71 27.29L15.39 25.61C15.74 25.26 16.3 25.22 16.69 25.52L18.4 26.8C19.06 27.29 20 26.82 20 26V9C20 7.9 20.9 7 22 7H11H10C7 7 6 8.79 6 11V12Z" stroke="#E5E5E5" stroke-width="1.5" stroke-miterlimit="10" stroke-linecap="round" stroke-linejoin="round"/>
<path id="Vector_3" d="M13 18.01H16" stroke="#E5E5E5" stroke-width="1.5" stroke-linecap="round" stroke-linejoin="round"/>
<path id="Vector_4" d="M13 14.01H16" stroke="#E5E5E5" stroke-width="1.5" stroke-linecap="round" stroke-linejoin="round"/>
<path id="Vector_5" d="M9.99561 18H10.0046" stroke="#E5E5E5" stroke-width="2" stroke-linecap="round" stroke-linejoin="round"/>
<path id="Vector_6" d="M9.99561 14H10.0046" stroke="#E5E5E5" stroke-width="2" stroke-linecap="round" stroke-linejoin="round"/>
</g>
</g>
</svg>
