<svg width="33" height="32" viewBox="0 0 33 32" fill="none" xmlns="http://www.w3.org/2000/svg">
<path d="M22.0001 12.16C21.9401 12.15 21.8701 12.15 21.8101 12.16C20.4301 12.11 19.3301 10.98 19.3301 9.58C19.3301 8.15 20.4801 7 21.9101 7C23.3401 7 24.4901 8.16 24.4901 9.58C24.4801 10.98 23.3801 12.11 22.0001 12.16Z" stroke="#E5E5E5" stroke-width="1.5" stroke-linecap="round" stroke-linejoin="round"/>
<path d="M20.9699 19.4402C22.3399 19.6702 23.8499 19.4302 24.9099 18.7202C26.3199 17.7802 26.3199 16.2402 24.9099 15.3002C23.8399 14.5902 22.3099 14.3502 20.9399 14.5902" stroke="#E5E5E5" stroke-width="1.5" stroke-linecap="round" stroke-linejoin="round"/>
<path d="M9.96998 12.16C10.03 12.15 10.1 12.15 10.16 12.16C11.54 12.11 12.64 10.98 12.64 9.58C12.64 8.15 11.49 7 10.06 7C8.62998 7 7.47998 8.16 7.47998 9.58C7.48998 10.98 8.58998 12.11 9.96998 12.16Z" stroke="#E5E5E5" stroke-width="1.5" stroke-linecap="round" stroke-linejoin="round"/>
<path d="M10.9999 19.4402C9.62994 19.6702 8.11994 19.4302 7.05994 18.7202C5.64994 17.7802 5.64994 16.2402 7.05994 15.3002C8.12994 14.5902 9.65994 14.3502 11.0299 14.5902" stroke="#E5E5E5" stroke-width="1.5" stroke-linecap="round" stroke-linejoin="round"/>
<path d="M16.0001 19.6302C15.9401 19.6202 15.8701 19.6202 15.8101 19.6302C14.4301 19.5802 13.3301 18.4502 13.3301 17.0502C13.3301 15.6202 14.4801 14.4702 15.9101 14.4702C17.3401 14.4702 18.4901 15.6302 18.4901 17.0502C18.4801 18.4502 17.3801 19.5902 16.0001 19.6302Z" stroke="#E5E5E5" stroke-width="1.5" stroke-linecap="round" stroke-linejoin="round"/>
<path d="M13.0902 22.7804C11.6802 23.7204 11.6802 25.2603 13.0902 26.2003C14.6902 27.2703 17.3102 27.2703 18.9102 26.2003C20.3202 25.2603 20.3202 23.7204 18.9102 22.7804C17.3202 21.7204 14.6902 21.7204 13.0902 22.7804Z" stroke="#E5E5E5" stroke-width="1.5" stroke-linecap="round" stroke-linejoin="round"/>
</svg>
