<svg width="20" height="20" viewBox="0 0 20 20" fill="none" xmlns="http://www.w3.org/2000/svg">
<path d="M18.3333 4.99996V7.01662C18.3333 8.33329 17.4999 9.16663 16.1833 9.16663H13.3333V3.34162C13.3333 2.41662 14.0916 1.66663 15.0166 1.66663C15.9249 1.67496 16.7583 2.04162 17.3583 2.64162C17.9583 3.24996 18.3333 4.08329 18.3333 4.99996Z" stroke="#D94A4A" stroke-width="1.5" stroke-miterlimit="10" stroke-linecap="round" stroke-linejoin="round"/>
<path d="M1.66675 5.83329V17.5C1.66675 18.1916 2.45008 18.5833 3.00008 18.1666L4.42508 17.1C4.75841 16.85 5.22508 16.8833 5.52508 17.1833L6.90841 18.575C7.23341 18.9 7.76675 18.9 8.09175 18.575L9.49175 17.175C9.78341 16.8833 10.2501 16.85 10.5751 17.1L12.0001 18.1666C12.5501 18.575 13.3334 18.1833 13.3334 17.5V3.33329C13.3334 2.41663 14.0834 1.66663 15.0001 1.66663H5.83341H5.00008C2.50008 1.66663 1.66675 3.15829 1.66675 4.99996V5.83329Z" stroke="#D94A4A" stroke-width="1.5" stroke-miterlimit="10" stroke-linecap="round" stroke-linejoin="round"/>
<path d="M7.5 10.8418H10" stroke="#D94A4A" stroke-width="1.5" stroke-linecap="round" stroke-linejoin="round"/>
<path d="M7.5 7.50842H10" stroke="#D94A4A" stroke-width="1.5" stroke-linecap="round" stroke-linejoin="round"/>
<path d="M4.99609 10.8334H5.00283" stroke="#D94A4A" stroke-width="2" stroke-linecap="round" stroke-linejoin="round"/>
<path d="M4.99609 7.5H5.00283" stroke="#D94A4A" stroke-width="2" stroke-linecap="round" stroke-linejoin="round"/>
</svg>
