<svg width="14" height="14" viewBox="0 0 14 14" fill="none" xmlns="http://www.w3.org/2000/svg">
<path d="M13.5798 12.6889L11.2882 10.4484L11.2345 10.3667C11.1346 10.2673 10.9981 10.2113 10.8555 10.2113C10.713 10.2113 10.5765 10.2673 10.4766 10.3667C8.52908 12.1534 5.52819 12.2506 3.46409 10.5937C1.4 8.93683 0.913203 6.04012 2.32655 3.82466C3.73989 1.60919 6.6148 0.762444 9.04466 1.84597C11.4745 2.9295 12.7053 5.60707 11.9208 8.10294C11.8643 8.28325 11.9104 8.47933 12.0419 8.61732C12.1734 8.75531 12.3702 8.81425 12.5581 8.77194C12.7461 8.72962 12.8967 8.59248 12.9532 8.41217C13.891 5.45031 12.4746 2.26292 9.62017 0.911918C6.76575 -0.43908 3.32998 0.451762 1.53546 3.00816C-0.259063 5.56455 0.12621 9.01931 2.44204 11.1375C4.75788 13.2558 8.30928 13.4018 10.7988 11.4811L12.8279 13.4649C13.0374 13.6689 13.3762 13.6689 13.5858 13.4649C13.7951 13.258 13.7951 12.9249 13.5858 12.7181L13.5798 12.6889Z" fill="#414141" fill-opacity="0.5"/>
</svg>
