<svg width="25" height="24" viewBox="0 0 25 24" fill="none" xmlns="http://www.w3.org/2000/svg">
<path d="M12.5 2.25C9.91414 2.25 7.43419 3.27723 5.60571 5.10571C3.77723 6.93419 2.75 9.41414 2.75 12C2.75 14.5859 3.77723 17.0658 5.60571 18.8943C7.43419 20.7228 9.91414 21.75 12.5 21.75C13.4726 21.7527 14.4399 21.6073 15.3688 21.3188C15.488 21.2879 15.5956 21.2227 15.6781 21.1313L21.6313 15.1781C21.7207 15.094 21.7856 14.987 21.8188 14.8688C22.1073 13.9399 22.2527 12.9726 22.25 12C22.245 9.41566 21.2162 6.93859 19.3888 5.11118C17.5614 3.28378 15.0843 2.25496 12.5 2.25ZM15.875 9C16.0975 9 16.315 9.06598 16.5 9.1896C16.685 9.31321 16.8292 9.48892 16.9144 9.69448C16.9995 9.90005 17.0218 10.1262 16.9784 10.3445C16.935 10.5627 16.8278 10.7632 16.6705 10.9205C16.5132 11.0778 16.3127 11.185 16.0945 11.2284C15.8762 11.2718 15.6501 11.2495 15.4445 11.1644C15.2389 11.0792 15.0632 10.935 14.9396 10.75C14.816 10.565 14.75 10.3475 14.75 10.125C14.75 9.82663 14.8685 9.54048 15.0795 9.32951C15.2905 9.11853 15.5766 9 15.875 9ZM9.125 9C9.34751 9 9.56501 9.06598 9.75002 9.1896C9.93502 9.31321 10.0792 9.48892 10.1644 9.69448C10.2495 9.90005 10.2718 10.1262 10.2284 10.3445C10.185 10.5627 10.0778 10.7632 9.9205 10.9205C9.76316 11.0778 9.56271 11.185 9.34448 11.2284C9.12625 11.2718 8.90005 11.2495 8.69448 11.1644C8.48891 11.0792 8.31321 10.935 8.1896 10.75C8.06598 10.565 8 10.3475 8 10.125C8 9.82663 8.11853 9.54048 8.32951 9.32951C8.54048 9.11853 8.82663 9 9.125 9ZM17.0469 14.625C16.5861 15.4232 15.9234 16.0861 15.1252 16.5469C14.3271 17.0078 13.4217 17.2504 12.5 17.2504C11.5784 17.2504 10.6729 17.0078 9.87479 16.5469C9.07664 16.0861 8.41388 15.4232 7.95313 14.625C7.89443 14.5398 7.85398 14.4435 7.83432 14.3419C7.81465 14.2404 7.81621 14.1359 7.83887 14.035C7.86154 13.9341 7.90483 13.8389 7.96603 13.7556C8.02723 13.6722 8.10501 13.6024 8.19449 13.5505C8.28397 13.4986 8.38321 13.4658 8.48597 13.4541C8.58873 13.4425 8.6928 13.4522 8.79163 13.4826C8.89047 13.5131 8.98193 13.5637 9.06027 13.6312C9.13862 13.6988 9.20215 13.7817 9.24688 13.875C9.57718 14.4453 10.0516 14.9187 10.6226 15.2478C11.1935 15.577 11.841 15.7502 12.5 15.7502C13.159 15.7502 13.8065 15.577 14.3774 15.2478C14.9484 14.9187 15.4228 14.4453 15.7531 13.875C15.8603 13.7196 16.0221 13.6103 16.2063 13.5689C16.3905 13.5275 16.5835 13.5571 16.7468 13.6518C16.9101 13.7465 17.0317 13.8993 17.0873 14.0797C17.143 14.2601 17.1285 14.4548 17.0469 14.625Z" fill="#E5E5E5"/>
</svg>
