<svg width="25" height="24" viewBox="0 0 25 24" fill="none" xmlns="http://www.w3.org/2000/svg">
<path d="M9 20C8.58333 20 8.22933 19.854 7.938 19.562C7.646 19.2707 7.5 18.9167 7.5 18.5V7H4C3.58333 7 3.22933 6.854 2.938 6.562C2.646 6.27067 2.5 5.91667 2.5 5.5C2.5 5.08333 2.646 4.72933 2.938 4.438C3.22933 4.146 3.58333 4 4 4H14C14.4167 4 14.7707 4.146 15.062 4.438C15.354 4.72933 15.5 5.08333 15.5 5.5C15.5 5.91667 15.354 6.27067 15.062 6.562C14.7707 6.854 14.4167 7 14 7H10.5V18.5C10.5 18.9167 10.354 19.2707 10.062 19.562C9.77067 19.854 9.41667 20 9 20ZM18 20C17.5833 20 17.2293 19.854 16.938 19.562C16.646 19.2707 16.5 18.9167 16.5 18.5V12H15C14.5833 12 14.2293 11.854 13.938 11.562C13.646 11.2707 13.5 10.9167 13.5 10.5C13.5 10.0833 13.646 9.72933 13.938 9.438C14.2293 9.146 14.5833 9 15 9H21C21.4167 9 21.7707 9.146 22.062 9.438C22.354 9.72933 22.5 10.0833 22.5 10.5C22.5 10.9167 22.354 11.2707 22.062 11.562C21.7707 11.854 21.4167 12 21 12H19.5V18.5C19.5 18.9167 19.354 19.2707 19.062 19.562C18.7707 19.854 18.4167 20 18 20Z" fill="#E5E5E5"/>
</svg>
