<svg width="20" height="20" viewBox="0 0 20 20" fill="none" xmlns="http://www.w3.org/2000/svg">
<path d="M10 3C10.9193 3 11.8295 3.18106 12.6788 3.53284C13.5281 3.88463 14.2997 4.40024 14.9497 5.05025C15.5998 5.70026 16.1154 6.47194 16.4672 7.32122C16.8189 8.1705 17 9.08075 17 10C17 10.9193 16.8189 11.8295 16.4672 12.6788C16.1154 13.5281 15.5998 14.2997 14.9497 14.9497C14.2997 15.5998 13.5281 16.1154 12.6788 16.4672C11.8295 16.8189 10.9193 17 10 17V3ZM10 2C7.87827 2 5.84344 2.84285 4.34315 4.34315C2.84285 5.84344 2 7.87827 2 10C2 12.1217 2.84285 14.1566 4.34315 15.6569C5.84344 17.1571 7.87827 18 10 18C12.1217 18 14.1566 17.1571 15.6569 15.6569C17.1571 14.1566 18 12.1217 18 10C18 7.87827 17.1571 5.84344 15.6569 4.34315C14.1566 2.84285 12.1217 2 10 2Z" fill="#E5E5E5" stroke="#E5E5E5" stroke-width="0.5"/>
</svg>
