<svg width="25" height="24" viewBox="0 0 25 24" fill="none" xmlns="http://www.w3.org/2000/svg">
<path d="M19.5 3L13.5 9L15.5 11L22.5 4V3M12.5 12.5C12.3674 12.5 12.2402 12.4473 12.1464 12.3536C12.0527 12.2598 12 12.1326 12 12C12 11.8674 12.0527 11.7402 12.1464 11.6464C12.2402 11.5527 12.3674 11.5 12.5 11.5C12.6326 11.5 12.7598 11.5527 12.8536 11.6464C12.9473 11.7402 13 11.8674 13 12C13 12.1326 12.9473 12.2598 12.8536 12.3536C12.7598 12.4473 12.6326 12.5 12.5 12.5ZM6.5 20C5.96957 20 5.46086 19.7893 5.08579 19.4142C4.71071 19.0391 4.5 18.5304 4.5 18C4.5 17.4696 4.71071 16.9609 5.08579 16.5858C5.46086 16.2107 5.96957 16 6.5 16C7.03043 16 7.53914 16.2107 7.91421 16.5858C8.28929 16.9609 8.5 17.4696 8.5 18C8.5 18.5304 8.28929 19.0391 7.91421 19.4142C7.53914 19.7893 7.03043 20 6.5 20ZM6.5 8C5.96957 8 5.46086 7.78929 5.08579 7.41421C4.71071 7.03914 4.5 6.53043 4.5 6C4.5 5.46957 4.71071 4.96086 5.08579 4.58579C5.46086 4.21071 5.96957 4 6.5 4C7.03043 4 7.53914 4.21071 7.91421 4.58579C8.28929 4.96086 8.5 5.46957 8.5 6C8.5 6.53043 8.28929 7.03914 7.91421 7.41421C7.53914 7.78929 7.03043 8 6.5 8ZM10.14 7.64C10.37 7.14 10.5 6.59 10.5 6C10.5 4.93913 10.0786 3.92172 9.32843 3.17157C8.57828 2.42143 7.56087 2 6.5 2C5.43913 2 4.42172 2.42143 3.67157 3.17157C2.92143 3.92172 2.5 4.93913 2.5 6C2.5 7.06087 2.92143 8.07828 3.67157 8.82843C4.42172 9.57857 5.43913 10 6.5 10C7.09 10 7.64 9.87 8.14 9.64L10.5 12L8.14 14.36C7.64 14.13 7.09 14 6.5 14C5.43913 14 4.42172 14.4214 3.67157 15.1716C2.92143 15.9217 2.5 16.9391 2.5 18C2.5 19.0609 2.92143 20.0783 3.67157 20.8284C4.42172 21.5786 5.43913 22 6.5 22C7.56087 22 8.57828 21.5786 9.32843 20.8284C10.0786 20.0783 10.5 19.0609 10.5 18C10.5 17.41 10.37 16.86 10.14 16.36L12.5 14L19.5 21H22.5V20L10.14 7.64Z" fill="#E5E5E5"/>
</svg>
